<svg width="204" height="45" viewBox="0 0 204 45" fill="none" xmlns="http://www.w3.org/2000/svg">
<path d="M22.2766 0C9.99734 0 0 10.0317 0 22.353C0 34.6744 9.99734 44.7068 22.2766 44.7068C34.5558 44.7068 44.5539 34.6788 44.5539 22.353C44.5539 10.0273 34.5602 0 22.2766 0ZM28.5727 32.5846C27.9292 33.4014 27.1095 34.0612 26.1751 34.5141C25.2408 34.967 24.2162 35.2013 23.1785 35.1994H14.8902V30.0445H23.1749C23.5342 30.0456 23.8853 29.9358 24.1803 29.73C24.4754 29.5241 24.7002 29.2322 24.8242 28.8938C24.9483 28.5553 24.9656 28.1868 24.8738 27.8382C24.782 27.4895 24.5855 27.1777 24.3111 26.9449L17.1487 21.8822L17.094 21.8383C15.9744 20.9461 15.1592 19.7266 14.7612 18.3487C14.3632 16.9709 14.4022 15.5029 14.8728 14.1483C15.3434 12.7937 16.2223 11.6195 17.3877 10.7885C18.553 9.95744 19.9471 9.51076 21.3768 9.51031H29.6629V14.6653H21.3812C21.022 14.6643 20.6712 14.7741 20.3763 14.9799C20.0814 15.1858 19.8567 15.4776 19.7327 15.8158C19.6087 16.1541 19.5913 16.5224 19.683 16.8709C19.7746 17.2194 19.9708 17.5313 20.245 17.7641L27.4095 22.8246L27.4642 22.8678C28.1731 23.4326 28.764 24.1321 29.2034 24.9261C29.6427 25.7202 29.9218 26.5934 30.0248 27.4957C30.1277 28.3981 30.0525 29.312 29.8033 30.1851C29.5542 31.0583 29.136 31.8736 28.5727 32.5846V32.5846Z" fill="white"/>
<path d="M116.68 16.7881C112.28 16.7881 108.562 20.5789 108.562 25.0624C108.562 29.5459 112.28 33.3411 116.68 33.3411C121.08 33.3411 124.798 29.5503 124.798 25.0624C124.798 20.5745 121.081 16.7881 116.68 16.7881ZM116.68 28.6335C114.798 28.6335 113.323 27.0665 113.323 25.066C113.323 23.0656 114.798 21.4993 116.68 21.4993C118.562 21.4993 120.037 23.0663 120.037 25.066C120.037 27.0658 118.563 28.6306 116.68 28.6306V28.6335Z" fill="white"/>
<path d="M159.958 16.7881C158.436 16.7881 156.738 17.6302 155.525 18.9848L155.407 19.1173L155.289 18.9848C154.077 17.6302 152.379 16.7881 150.857 16.7881C147.673 16.7881 144.289 18.8662 144.289 22.7192V32.9508H149.251V23.5781C149.251 22.2996 149.922 21.5659 151.092 21.5659C152.261 21.5659 152.932 22.2982 152.932 23.5781V32.9508H157.891V23.5781C157.891 22.2996 158.561 21.5659 159.731 21.5659C160.901 21.5659 161.563 22.2989 161.563 23.5781V32.9508H166.525V22.717C166.525 18.8662 163.14 16.7881 159.958 16.7881Z" fill="white"/>
<path d="M134.125 16.7881C129.972 16.7881 127.393 19.5164 127.393 23.9084V32.9508H132.155V23.9084C132.155 22.4227 132.91 21.4993 134.125 21.4993C135.34 21.4993 136.095 22.4227 136.095 23.9084V32.9508H140.856V23.9084C140.857 19.5164 138.277 16.7881 134.125 16.7881Z" fill="white"/>
<path d="M175.226 17.1851H170.268V32.9472H175.226V17.1851Z" fill="white"/>
<path d="M185.491 16.7881C181.338 16.7881 178.758 19.5164 178.758 23.9084V32.9508H183.519V23.9084C183.519 22.4227 184.275 21.4993 185.489 21.4993C186.703 21.4993 187.459 22.4227 187.459 23.9084V32.9508H192.221V23.9084C192.224 19.5164 189.644 16.7881 185.491 16.7881Z" fill="white"/>
<path d="M172.746 9.70752C171.126 9.70752 169.9 10.9333 169.9 12.5632C169.9 14.1932 171.123 15.4153 172.746 15.4153C174.37 15.4153 175.589 14.1888 175.589 12.5632C175.589 10.9377 174.366 9.70752 172.746 9.70752Z" fill="white"/>
<path d="M203.038 28.4351C200.921 28.3663 200.175 27.9921 200.175 26.0261V21.5653H203.934V17.0525H200.208V13.2148H195.414V27.347C195.414 29.9296 196.927 32.945 201.191 32.945H204V28.3839C203.689 28.411 203.349 28.4351 203.038 28.4351Z" fill="white"/>
<path d="M92.9976 17.1851H88.0391V32.9472H92.9976V17.1851Z" fill="white"/>
<path d="M72.6919 9.70752C71.0719 9.70752 69.8496 10.9333 69.8496 12.5632C69.8496 14.1932 71.0719 15.4153 72.6919 15.4153C74.3119 15.4153 75.5342 14.1888 75.5342 12.5632C75.5342 10.9377 74.3119 9.70752 72.6919 9.70752Z" fill="white"/>
<path d="M84.0845 10.104H79.126V32.9469H84.0845V10.104Z" fill="white"/>
<path d="M62.9369 23.4603C61.8584 22.9924 61.079 22.6483 61.079 22.0881C61.079 21.5638 61.6154 21.1684 62.3261 21.1684H66.2893V17.1851H61.3038C58.8227 17.1851 56.3182 18.6986 56.3182 21.5924C56.3182 24.9548 58.6906 25.884 60.4223 26.5621C61.3906 26.9407 62.1546 27.2401 62.1546 27.8801C62.1546 28.4359 61.7504 28.7669 61.0732 28.7669H56.1533V32.9509H61.8971C65.3458 32.9509 67.2453 31.2096 67.2453 28.0449C67.2453 25.3444 64.7554 24.2555 62.9369 23.4603Z" fill="white"/>
<path d="M75.1714 17.1851H70.2129V32.9472H75.1714V17.1851Z" fill="white"/>
<path d="M90.5183 9.70752C88.8983 9.70752 87.6768 10.9333 87.6768 12.5632C87.6768 14.1932 88.8983 15.4153 90.5183 15.4153C92.1384 15.4153 93.3643 14.1888 93.3643 12.5632C93.3643 10.9377 92.1391 9.70752 90.5183 9.70752Z" fill="white"/>
<path d="M95.7881 25.0661C95.7881 30.1852 99.6644 32.9472 103.312 32.9472H106.322V28.5011H104.238C102.053 28.5011 100.749 27.2174 100.749 25.0661C100.749 22.9361 102.053 21.6649 104.238 21.6649H106.322V17.1851H103.315C99.6644 17.1851 95.7881 19.9471 95.7881 25.0661Z" fill="white"/>
</svg>
